# xmcd CD database file
#
# Track frame offsets:
#	150
#	23307
#	35129
#	53429
#	78079
#
# Disc length: 1402 seconds
#
# Revision: 0
# Processed by: cddbd v1.5.2PL0 Copyright (c) Steve Scherf et al.
# Submitted via: CDex 1.83
#
DISCID=28057805
DTITLE=Bill Evans - Le compositeur very early cd jazzmagazine
DYEAR=2018
DGENRE=Jazz
TTITLE0=Bill Evans - Very Early
TTITLE1=	 - Displacement
TTITLE2=	 - Five
TTITLE3=	 - Blue In Green
TTITLE4=	 - Time Remembered
EXTD=YEAR: 2018
EXTT0=
EXTT1=
EXTT2=
EXTT3=
EXTT4=
PLAYORDER=
